<svg xmlns="http://www.w3.org/2000/svg" xmlns:xlink="http://www.w3.org/1999/xlink" viewBox="0 0 256 256" width="64px" height="64px">
  <style type="text/css">
    @keyframes ld-pulse
{
  0% {
    animation-timing-function: cubic-bezier(0.0413,0.3905,0.5086,0.6902);
    transform: scale(1);
  }
  24.3% {
    animation-timing-function: cubic-bezier(0.2248,0.6332,0.5246,1);
    transform: scale(0.8458);
  }
  55% {
    animation-timing-function: cubic-bezier(0.3036,0.3393,0.655,0.6144);
    transform: scale(0.8022);
  }
  70.2% {
    animation-timing-function: cubic-bezier(0.4464,0.2728,0.5562,0.7288);
    transform: scale(0.8294);
  }
  82.3% {
    animation-timing-function: cubic-bezier(0.6826,0.1845,1,0.7358);
    transform: scale(0.869);
  }
  100% {
    transform: scale(1);
  }
}
.ld.ld-pulse {
  animation: ld-pulse 0.5s infinite;
}
    @keyframes ld-move {
      0% { transform: translate(0,0) }
      100% { transform: translate(256px,0) }
    }
  </style>
  <defs><g id="id-0.04726717558235283">
    
<!-- Generator: Adobe Illustrator 21.0.0, SVG Export Plug-In . SVG Version: 6.00 Build 0)  -->


<polygon fill="#FFF7E9" points="160,192 160,128 96,128 32,128 32,192 96,192 "/>
<polygon fill="#F2F2F3" points="96,128 160,128 224,128 224,64 160,64 96,64 "/>
<polygon fill="#FFF7E9" points="160,64 160,0 32,0 32,64 96,64 "/>
<polygon fill="#F2F2F3" points="160,192 96,192 96,256 224,256 224,192 "/>
<polygon fill="#FFFFFF" points="160,0 160,64 224,64 288,64 288,0 "/>
<polygon fill="#D2D2D3" points="32,64 -32,64 -32,128 32,128 96,128 96,64 "/>
<polygon fill="#FFFFFF" points="160,128 160,192 224,192 288,192 288,128 224,128 "/>
<polygon fill="#D2D2D3" points="32,192 -32,192 -32,256 32,256 96,256 96,192 "/>


  </g></defs>
  <rect fill="#F2F2F3" width="256" height="256"/>
  <g>
    <use xlink:href="#id-0.04726717558235283" x="-256" y="-256"/><use xlink:href="#id-0.04726717558235283" x="0" y="-256"/><use xlink:href="#id-0.04726717558235283" x="256" y="-256"/><use xlink:href="#id-0.04726717558235283" x="-256" y="0"/><use xlink:href="#id-0.04726717558235283" x="0" y="0"/><use xlink:href="#id-0.04726717558235283" x="256" y="0"/><use xlink:href="#id-0.04726717558235283" x="-256" y="256"/><use xlink:href="#id-0.04726717558235283" x="0" y="256"/><use xlink:href="#id-0.04726717558235283" x="256" y="256"/>
    <animateTransform attributeName="transform" type="translate" dur="4s" repeatCount="indefinite" keyTimes="0;1" values="0;256"/>
  </g>
</svg>